<svg width="178" height="36" viewBox="0 0 178 36" fill="none" xmlns="http://www.w3.org/2000/svg">
<path d="M12.2577 6.29736C13.4557 6.29736 14.4197 6.63319 15.1497 7.30484C15.8797 7.97649 16.2447 8.85337 16.2447 9.93548C16.2447 10.7937 16.0164 11.6799 15.5597 12.5941C15.0992 13.5083 14.4946 14.3106 13.7458 15.0009C12.9971 15.6912 12.2109 16.1576 11.3873 16.4001L11.1065 15.8964C11.9114 15.5419 12.5628 14.9729 13.0607 14.1893C13.5549 13.4057 13.802 12.5755 13.802 11.6986C13.802 10.5791 13.4651 9.67801 12.7912 8.99517C12.1173 8.31605 11.2188 7.97649 10.0957 7.97649C8.97262 7.97649 7.91502 8.37762 6.92294 9.17987C5.93086 9.98212 5.13532 11.0493 4.53633 12.3814C3.93734 13.7173 3.63785 15.1408 3.63785 16.652C3.63785 18.2938 3.89054 19.7398 4.39594 20.9898C4.90134 22.2398 5.61826 23.2044 6.5467 23.8835C7.47139 24.5663 8.53273 24.9077 9.73071 24.9077C10.6292 24.9077 11.509 24.7156 12.37 24.3312C13.2311 23.9506 14.0172 23.3965 14.7286 22.6689L15.3463 23.2846C13.3621 25.7846 11.0129 27.0346 8.29875 27.0346C6.78255 27.0346 5.47226 26.6615 4.36787 25.9152C3.26348 25.1689 2.4174 24.1559 1.82964 22.876C1.23813 21.5999 0.942383 20.1782 0.942383 18.611C0.942383 16.3162 1.4534 14.2303 2.47543 12.3534C3.49371 10.4803 4.87327 9.00263 6.61409 7.92052C8.35491 6.83842 10.2361 6.29736 12.2577 6.29736ZM25.1454 12.734C26.0626 12.734 26.9274 12.9299 27.7398 13.3217C28.5559 13.7135 29.1511 14.3106 29.5255 15.1128L27.5039 16.2042C27.2044 15.7751 26.7926 15.3871 26.2685 15.04C25.7444 14.6968 25.1828 14.5251 24.5838 14.5251C23.6292 14.5251 22.7962 14.7714 22.0849 15.2639C21.3736 15.7602 20.8308 16.4281 20.4564 17.2677C20.082 18.1073 19.8949 19.0401 19.8949 20.0662C19.8949 21.5402 20.1476 22.7379 20.653 23.6596C21.1584 24.585 21.9539 25.0477 23.0396 25.0477C24.5745 25.0477 25.6321 24.432 26.2123 23.2006C26.7926 21.9693 27.0828 20.626 27.0828 19.1707V17.9114L29.5536 16.8759V24.2361C29.5536 24.4786 29.6191 24.7118 29.7501 24.9357C29.8812 25.1596 30.0777 25.2716 30.3398 25.2716C30.8826 25.2716 31.3786 24.8984 31.8279 24.1521L32.2491 24.5999C32.0244 25.2342 31.6313 25.7697 31.0698 26.2063C30.5082 26.6466 29.9467 26.8667 29.3851 26.8667C28.5802 26.8667 27.985 26.5682 27.5994 25.9712C27.2175 25.3742 27.0266 24.5813 27.0266 23.5924H26.9704C26.5025 24.5813 25.8698 25.4059 25.0724 26.0663C24.2787 26.7305 23.442 27.0626 22.5622 27.0626C20.9712 27.0626 19.7676 26.516 18.9514 25.4227C18.1391 24.3331 17.7329 22.8741 17.7329 21.0457C17.7329 19.5905 18.0604 18.2229 18.7156 16.9431C19.3707 15.6669 20.2636 14.6464 21.3942 13.8814C22.5285 13.1165 23.7789 12.734 25.1454 12.734ZM40.2512 16.1483C39.4089 17.0252 38.6826 18.167 38.0724 19.5737C37.4659 20.9842 37.1627 22.2678 37.1627 23.4245C37.1627 24.432 37.3817 25.2753 37.8197 25.9544C38.2614 26.6373 38.969 26.9787 39.9424 26.9787C40.7285 26.9787 41.481 26.7735 42.1998 26.363C42.9223 25.9525 43.5363 25.4208 44.0417 24.7678L43.7329 24.348C43.1526 24.7398 42.5817 24.9357 42.0201 24.9357C41.1403 24.9357 40.4758 24.6279 40.0266 24.0122C39.5773 23.3965 39.3527 22.6502 39.3527 21.7734C39.3527 20.3554 39.7177 19.0121 40.4478 17.7434C41.1778 16.4748 42.1043 15.2434 43.2275 14.0494L42.7782 13.6576C41.4679 14.4785 40.2699 14.8889 39.1843 14.8889C38.5478 14.8889 37.9676 14.6035 37.4434 14.0326C36.9193 13.4654 36.5169 12.8366 36.2361 12.1463L33.9618 14.693C34.0928 15.0662 34.4485 15.4953 35.0288 15.9804L33.1475 19.8983L34.1864 20.3741L36.0115 16.3722C36.3297 16.5028 36.5917 16.5867 36.7977 16.624C37.0036 16.6613 37.2843 16.68 37.64 16.68C38.5572 16.68 39.3995 16.4748 40.167 16.0643L40.2512 16.1483ZM58.2153 0.868164V24.2361C58.2153 24.4973 58.2771 24.7342 58.4007 24.9469C58.5205 25.1633 58.7114 25.2716 58.9734 25.2716C59.2355 25.2716 59.4976 25.154 59.7596 24.9189C60.0217 24.6876 60.2182 24.432 60.3493 24.1521L60.8827 24.5999C60.5832 25.2342 60.1583 25.7697 59.608 26.2063C59.0539 26.6466 58.5148 26.8667 57.9907 26.8667C57.1297 26.8667 56.5026 26.6242 56.1095 26.1391C55.7164 25.654 55.5292 24.8145 55.548 23.6204H55.4357C54.2938 25.9152 52.8993 27.0626 51.2521 27.0626C49.6236 27.0626 48.375 26.4973 47.5065 25.3667C46.6342 24.2398 46.1981 22.8275 46.1981 21.1297C46.1981 19.7864 46.4882 18.4524 47.0685 17.1278C47.6488 15.8031 48.478 14.7117 49.5562 13.8535C50.6306 12.9952 51.8698 12.5661 53.2737 12.5661C54.1534 12.5661 54.9209 12.79 55.576 13.2378V1.93162L58.2153 0.868164ZM53.1052 14.2173C52.057 14.2173 51.1922 14.5438 50.5108 15.1968C49.8257 15.8498 49.3241 16.6371 49.0059 17.5587C48.6876 18.4841 48.5285 19.348 48.5285 20.1502C48.5285 20.7845 48.6408 21.4842 48.8655 22.2491C49.0901 23.0141 49.4551 23.6708 49.9605 24.2193C50.4659 24.7716 51.1117 25.0477 51.8979 25.0477C53.3205 25.0477 54.2901 24.4357 54.8067 23.2118C55.3196 21.9917 55.576 20.6446 55.576 19.1707V15.3367C55.2578 15.0009 54.8891 14.7303 54.4698 14.5251C54.0467 14.3199 53.5919 14.2173 53.1052 14.2173ZM66.751 11.5866C67.3874 11.5866 67.8516 11.6986 68.1436 11.9225C68.4319 12.1463 68.576 12.4915 68.576 12.9579C68.576 13.4617 68.4787 13.9094 68.284 14.3012C68.0856 14.693 67.8741 15.0289 67.6495 15.3087C67.4249 15.5886 67.2751 15.7845 67.2002 15.8964C67.4248 16.2695 67.846 16.708 68.4637 17.2117C68.9691 17.6408 69.3716 18.0233 69.6711 18.3591C69.9706 18.695 70.2289 19.1465 70.446 19.7136C70.6594 20.2845 70.7661 20.9804 70.7661 21.8014C70.7661 22.7715 70.5471 23.6577 70.1091 24.46C69.6673 25.2622 69.059 25.8966 68.284 26.363C67.5053 26.8294 66.6293 27.0626 65.656 27.0626C65.057 27.0626 64.4018 26.9358 63.6905 26.682C62.9792 26.432 62.4551 26.0738 62.1182 25.6074L63.9994 23.1167C64.4486 23.695 64.9222 24.1895 65.4201 24.5999C65.9143 25.0104 66.4515 25.2156 67.0318 25.2156C67.8367 25.2156 68.5255 24.9488 69.0983 24.4152C69.6673 23.8853 69.9518 23.2473 69.9518 22.501C69.9518 21.904 69.7048 21.3107 69.2106 20.7211C68.7127 20.1353 68.0145 19.4412 67.116 18.639C67.0037 18.5457 66.7884 18.3535 66.4702 18.0625C66.152 17.7752 65.918 17.5382 65.7683 17.3517L63.8028 20.2342L62.9043 19.6465L65.1506 16.5401C64.8885 15.8124 64.7575 15.0942 64.7575 14.3852C64.7575 13.5829 64.9353 12.915 65.2909 12.3814C65.6466 11.8516 66.1333 11.5866 66.751 11.5866ZM66.751 12.6781C66.5076 12.6781 66.3541 12.7434 66.2905 12.874C66.2231 13.0046 66.1894 13.2005 66.1894 13.4617C66.1894 13.7975 66.2362 14.0867 66.3298 14.3292C66.4234 14.5718 66.4889 14.7397 66.5264 14.833C66.7323 14.7024 66.9251 14.4635 67.1048 14.1165C67.2807 13.7732 67.3687 13.4803 67.3687 13.2378C67.3687 13.0699 67.3182 12.9337 67.2171 12.8292C67.1122 12.7284 66.9569 12.6781 66.751 12.6781ZM80.0598 6.35333C81.314 6.35333 82.5026 6.63692 83.6257 7.20409C84.7488 7.775 85.6941 8.58285 86.4615 9.62764L84.2715 12.3143C83.8035 11.0083 83.1053 9.92615 82.1769 9.06793C81.2522 8.20971 80.1534 7.7806 78.8806 7.7806C77.6639 7.7806 76.7186 8.12575 76.0447 8.81606C75.3708 9.50637 75.0339 10.3926 75.0339 11.4747C75.0339 12.4822 75.2773 13.3217 75.7639 13.9934C76.2506 14.665 76.8402 15.2061 77.5328 15.6165C78.2254 16.027 79.1613 16.4934 80.3406 17.0158C81.4637 17.5196 82.3472 17.958 82.9911 18.3311C83.6388 18.7043 84.1873 19.1894 84.6365 19.7864C85.0857 20.3834 85.3104 21.1204 85.3104 21.9973C85.3291 23.6204 84.805 24.8704 83.738 25.7473C82.6711 26.6242 81.2859 27.0626 79.5825 27.0626C78.3284 27.0626 77.1341 26.8145 75.9998 26.3182C74.8692 25.8257 73.967 25.0757 73.2931 24.0682L75.4832 21.6334C76.1196 23.126 76.8964 24.1839 77.8136 24.807C78.7308 25.4339 79.6199 25.7473 80.481 25.7473C81.2859 25.7473 81.9729 25.5272 82.5419 25.0869C83.1147 24.6503 83.4011 24.0775 83.4011 23.3685C83.4011 22.7155 83.1989 22.1409 82.7946 21.6446C82.394 21.1521 81.8942 20.7323 81.2952 20.3853C80.6963 20.042 79.882 19.6371 78.8525 19.1707C77.5422 18.5737 76.494 18.0326 75.7078 17.5476C74.9216 17.0625 74.2477 16.4225 73.6862 15.6277C73.1246 14.8367 72.8438 13.8721 72.8438 12.734C72.8438 11.54 73.1565 10.4523 73.7817 9.47092C74.4106 8.49329 75.2773 7.72835 76.3816 7.17611C77.486 6.62759 78.7121 6.35333 80.0598 6.35333ZM91.7402 0.868164V20.7659H91.8525C92.0397 19.7398 92.371 18.5886 92.8464 17.3125C93.3256 16.0326 93.9677 14.9076 94.7726 13.9374C95.5775 12.9672 96.5227 12.4822 97.6084 12.4822C98.1887 12.4822 98.6136 12.6911 98.8831 13.109C99.1564 13.5307 99.3155 14.0027 99.3605 14.5251C99.4091 15.0475 99.4335 15.7378 99.4335 16.596V24.376C99.4335 24.5999 99.5027 24.8145 99.6412 25.0197C99.7835 25.2249 100.004 25.3275 100.304 25.3275C100.791 25.3275 101.287 24.9637 101.792 24.2361L102.129 24.6559C101.867 25.2716 101.449 25.794 100.877 26.2231C100.308 26.6522 99.733 26.8667 99.1527 26.8667C97.6926 26.8667 96.9626 25.9246 96.9626 24.0402V16.624C96.9626 16.3815 96.9102 16.1576 96.8054 15.9524C96.7043 15.7471 96.5321 15.6445 96.2888 15.6445C95.3341 15.6445 94.5105 16.3852 93.8179 17.8666C93.1253 19.3517 92.5919 20.9842 92.2175 22.7641C91.8431 24.5477 91.6559 25.7566 91.6559 26.391L89.157 27.1186V1.93162L91.7402 0.868164ZM110.434 12.4822L110.94 13.0699C109.536 13.9654 108.431 14.9636 107.627 16.0643C106.822 17.1651 106.419 18.4617 106.419 19.9543C106.419 20.7939 106.597 21.6372 106.953 22.4842C107.308 23.335 107.842 24.0402 108.553 24.5999C109.264 25.1596 110.116 25.4395 111.108 25.4395C111.913 25.4395 112.63 25.2529 113.259 24.8798C113.884 24.5066 114.371 24.0029 114.719 23.3685C115.063 22.7342 115.236 22.0346 115.236 21.2696C115.236 20.3927 114.97 19.4972 114.438 18.583C113.903 17.6688 113.205 16.8946 112.344 16.2602C111.483 15.6259 110.603 15.2714 109.704 15.1968C110.079 14.8236 110.528 14.4318 111.052 14.0214C111.576 13.6109 112.11 13.2098 112.652 12.818C113.944 13.2471 114.964 14.0624 115.713 15.2639C116.462 16.4692 116.836 17.8087 116.836 19.2827C116.836 20.5886 116.57 21.8424 116.039 23.0439C115.503 24.2492 114.721 25.2286 113.691 25.9824C112.662 26.7399 111.445 27.1186 110.041 27.1186C108.918 27.1186 107.885 26.8425 106.941 26.2902C105.994 25.7417 105.249 24.9917 104.706 24.0402C104.164 23.0887 103.892 22.0346 103.892 20.8778C103.892 18.8442 104.497 17.0811 105.706 15.5886C106.911 14.096 108.488 13.0605 110.434 12.4822ZM127.674 12.5941C128.666 12.5941 129.583 12.8777 130.426 13.4449C131.268 14.0158 131.933 14.79 132.419 15.7677C132.906 16.749 133.149 17.8181 133.149 18.9748C133.149 20.6166 132.921 22.0383 132.464 23.2398C132.004 24.4451 131.343 25.3742 130.482 26.0272C129.621 26.6802 128.61 27.0067 127.449 27.0067C127.169 27.0067 126.893 26.9656 126.624 26.8835C126.351 26.7977 126.008 26.6522 125.596 26.447L126.326 24.8518C126.794 25.1503 127.468 25.2995 128.348 25.2995C129.134 25.2995 129.776 24.7809 130.274 23.7436C130.768 22.71 131.015 21.3816 131.015 19.7584C131.015 18.8256 130.828 17.9711 130.454 17.1949C130.079 16.4225 129.565 15.8162 128.909 15.3759C128.254 14.9393 127.524 14.721 126.719 14.721C125.746 14.721 124.997 15.2434 124.473 16.2882C123.949 17.333 123.687 18.8162 123.687 20.7379V34.8146L121.244 35.8501V15.2247C121.244 14.8889 121.169 14.6184 121.02 14.4132C120.87 14.2079 120.673 14.1053 120.43 14.1053C120.243 14.1053 120.037 14.1986 119.812 14.3852C119.588 14.5718 119.307 14.8703 118.97 15.2807L118.549 14.8609C118.773 14.2266 119.166 13.6893 119.728 13.249C120.29 12.8124 120.851 12.5941 121.413 12.5941C122.255 12.5941 122.863 12.8404 123.238 13.3329C123.612 13.8292 123.799 14.6277 123.799 15.7285H123.912C124.342 14.7956 124.9 14.04 125.585 13.4617C126.266 12.8833 126.963 12.5941 127.674 12.5941ZM144.071 12.5941C145.064 12.5941 145.981 12.8777 146.823 13.4449C147.665 14.0158 148.33 14.79 148.817 15.7677C149.303 16.749 149.547 17.8181 149.547 18.9748C149.547 20.6166 149.316 22.0383 148.856 23.2398C148.399 24.4451 147.74 25.3742 146.879 26.0272C146.018 26.6802 145.007 27.0067 143.847 27.0067C143.566 27.0067 143.289 26.9656 143.016 26.8835C142.746 26.7977 142.406 26.6522 141.994 26.447L142.724 24.8518C143.192 25.1503 143.866 25.2995 144.745 25.2995C145.531 25.2995 146.172 24.7809 146.666 23.7436C147.164 22.71 147.413 21.3816 147.413 19.7584C147.413 18.8256 147.226 17.9711 146.851 17.1949C146.477 16.4225 145.962 15.8162 145.307 15.3759C144.652 14.9393 143.922 14.721 143.117 14.721C142.143 14.721 141.395 15.2434 140.871 16.2882C140.346 17.333 140.084 18.8162 140.084 20.7379V34.8146L137.642 35.8501V15.2247C137.642 14.8889 137.567 14.6184 137.417 14.4132C137.267 14.2079 137.071 14.1053 136.827 14.1053C136.64 14.1053 136.434 14.1986 136.21 14.3852C135.985 14.5718 135.704 14.8703 135.367 15.2807L134.946 14.8609C135.171 14.2266 135.564 13.6893 136.125 13.249C136.687 12.8124 137.249 12.5941 137.81 12.5941C138.652 12.5941 139.261 12.8404 139.635 13.3329C140.01 13.8292 140.197 14.6277 140.197 15.7285H140.309C140.74 14.7956 141.296 14.04 141.977 13.4617C142.662 12.8833 143.36 12.5941 144.071 12.5941ZM160.132 12.4822C161.143 12.4822 161.985 12.7527 162.659 13.2937C163.333 13.8348 163.67 14.6371 163.67 15.7005C163.67 16.5587 163.205 17.514 162.277 18.5662C161.352 19.6222 160.267 20.5886 159.02 21.4655C157.777 22.3424 156.716 22.9581 155.836 23.3126C156.304 24.0589 156.837 24.5757 157.436 24.863C158.035 25.154 158.737 25.2995 159.542 25.2995C160.441 25.2995 161.334 25.0701 162.221 24.6111C163.112 24.1559 163.848 23.5644 164.428 22.8368L164.765 23.4245C163.848 24.5999 162.874 25.501 161.845 26.1279C160.815 26.7511 159.552 27.0626 158.054 27.0626C156.912 27.0626 155.892 26.7828 154.994 26.2231C154.095 25.6634 153.393 24.9115 152.888 23.9674C152.382 23.0271 152.13 22.0066 152.13 20.9058C152.13 19.5252 152.504 18.1819 153.253 16.8759C154.002 15.5699 154.994 14.5102 156.229 13.6967C157.465 12.887 158.765 12.4822 160.132 12.4822ZM158.672 14.2453C157.848 14.2453 157.113 14.5065 156.465 15.0289C155.821 15.5512 155.316 16.2229 154.949 17.0438C154.586 17.8647 154.404 18.7136 154.404 19.5905C154.404 20.7472 154.675 21.7361 155.218 22.557C156.005 22.2025 156.856 21.6652 157.773 20.945C158.691 20.2286 159.467 19.4506 160.104 18.611C160.74 17.7714 161.058 17.0065 161.058 16.3162C161.058 14.9356 160.263 14.2453 158.672 14.2453ZM173.267 16.1483C172.424 17.0252 171.7 18.167 171.093 19.5737C170.483 20.9842 170.178 22.2678 170.178 23.4245C170.178 24.432 170.399 25.2753 170.841 25.9544C171.279 26.6373 171.984 26.9787 172.958 26.9787C173.744 26.9787 174.498 26.7735 175.221 26.363C175.94 25.9525 176.552 25.4208 177.057 24.7678L176.748 24.348C176.168 24.7398 175.597 24.9357 175.036 24.9357C174.156 24.9357 173.491 24.6279 173.042 24.0122C172.593 23.3965 172.368 22.6502 172.368 21.7734C172.368 20.3554 172.733 19.0121 173.463 17.7434C174.193 16.4748 175.12 15.2434 176.243 14.0494L175.794 13.6576C174.483 14.4785 173.285 14.8889 172.2 14.8889C171.563 14.8889 170.983 14.6035 170.459 14.0326C169.935 13.4654 169.532 12.8366 169.252 12.1463L166.977 14.693C167.108 15.0662 167.464 15.4953 168.044 15.9804L166.163 19.8983L167.202 20.3741L169.027 16.3722C169.345 16.5028 169.607 16.5867 169.813 16.624C170.019 16.6613 170.3 16.68 170.655 16.68C171.573 16.68 172.415 16.4748 173.182 16.0643L173.267 16.1483Z" fill="black"/>
</svg>
