<svg width="246" height="69" viewBox="0 0 246 69" fill="none" xmlns="http://www.w3.org/2000/svg">
<path d="M245.08 15.1115C243.927 8.11432 240.64 6.16891 240.64 6.16891C230.549 -1.03848 217.956 0.515015 206.642 1.55047C186.668 1.59251 166.775 3.13178 146.846 3.95767C105.018 4.08378 62.8322 2.01225 21.2119 7.12029C17.302 8.688 -3.71036 7.42814 1.04113 16.0073C2.28653 19.576 6.83086 23.5367 6.69194 26.8112C7.31463 27.3849 8.17984 26.0694 8.54887 26.8953C9.84078 29.1201 11.9508 28.0705 13.6812 29.3866C11.2704 32.8991 13.0002 35.8237 14.6493 38.8887C11.7436 39.6867 8.01858 39.3084 6.34647 41.9536C6.17343 43.8712 5.23938 43.5071 4.21292 43.423C3.46308 43.3674 1.95223 43.5769 2.2059 44.1791C3.0711 46.2357 -0.642765 47.4257 1.68677 49.441C0.0841304 51.6238 2.79448 53.5136 2.42545 55.8781C2.37894 56.3541 2.63261 56.7603 3.03637 56.8722C4.82384 57.4737 2.21768 58.6495 2.4943 59.9229C20.831 68.6275 40.7245 62.6101 59.511 66.6123C64.389 63.8137 60.7216 67.6063 62.671 67.0184C64.193 66.3328 65.3001 69.1734 67.0187 67.5643C67.2841 67.1025 66.8804 66.0108 67.8256 66.2203C68.3218 66.3328 68.7603 66.3044 68.8291 65.6609C68.9333 64.6953 68.0222 65.2968 67.7797 64.7929C70.3976 62.246 69.752 68.3061 72.2081 68.0538C72.0927 67.312 71.3782 66.2488 72.8425 66.3885C74.2957 65.3252 74.3416 64.4431 75.6335 66.8366C75.6794 67.3541 75.9101 67.7182 76.2792 67.9698C80.3156 65.3666 84.329 68.8933 88.5614 67.7182C91.1563 66.4305 93.6471 68.418 96.2762 67.9277C97.1991 67.5358 98.1332 66.8366 99.0213 68.0118C109.896 68.264 121.486 67.2144 131.797 68.0538C159.347 66.4868 188.79 68.6974 217.84 66.6265C224.691 65.829 231.806 64.6953 238.484 63.7853C238.484 63.7853 243.892 61.2947 243.892 50.0988C243.892 38.9029 245.045 40.3024 245.219 31.3876C245.392 22.4728 246.199 22.1087 245.045 15.1115H245.08Z" fill="white"/>
</svg>
