<svg width="116" height="48" viewBox="0 0 116 48" fill="none" xmlns="http://www.w3.org/2000/svg">
<circle cx="92.3542" cy="24.3542" r="22.6462" stroke="#323232" stroke-width="2"/>
<path d="M103.731 24.3541L104.439 23.647L105.146 24.3541L104.439 25.0613L103.731 24.3541ZM80.9776 25.3541C80.4253 25.3541 79.9776 24.9064 79.9776 24.3541C79.9776 23.8019 80.4253 23.3541 80.9776 23.3541V25.3541ZM96.8539 16.0624L104.439 23.647L103.024 25.0613L95.4397 17.4766L96.8539 16.0624ZM104.439 25.0613L96.8539 32.6459L95.4397 31.2317L103.024 23.647L104.439 25.0613ZM103.731 25.3541H80.9776V23.3541H103.731V25.3541Z" fill="#323232"/>
<circle cx="23.6462" cy="23.6462" r="22.6462" transform="matrix(-1 0 0 1 47.292 0.708008)" stroke="#323232" stroke-width="2"/>
<path d="M12.2686 24.3541L11.5614 23.647L10.8543 24.3541L11.5614 25.0613L12.2686 24.3541ZM35.0224 25.3541C35.5747 25.3541 36.0224 24.9064 36.0224 24.3541C36.0224 23.8019 35.5747 23.3541 35.0224 23.3541V25.3541ZM19.1461 16.0624L11.5614 23.647L12.9757 25.0613L20.5603 17.4766L19.1461 16.0624ZM11.5614 25.0613L19.1461 32.6459L20.5603 31.2317L12.9757 23.647L11.5614 25.0613ZM12.2686 25.3541H35.0224V23.3541H12.2686V25.3541Z" fill="#323232"/>
</svg>
