<svg width="288" height="140" viewBox="0 0 288 140" fill="none" xmlns="http://www.w3.org/2000/svg">
<ellipse cx="48.7064" cy="10.7649" rx="10.5882" ry="10.593" fill="#FF8B66"/>
<ellipse cx="48.7054" cy="40.4251" rx="10.5882" ry="10.593" fill="#FF8B66"/>
<ellipse cx="48.7054" cy="70.0862" rx="10.5882" ry="10.593" fill="#FF8B66"/>
<ellipse cx="10.5882" cy="70.0862" rx="10.5882" ry="10.593" fill="#FF8B66"/>
<ellipse cx="10.5882" cy="99.7464" rx="10.5882" ry="10.593" fill="#FF8B66"/>
<ellipse cx="10.5882" cy="129.407" rx="10.5882" ry="10.593" fill="#FF8B66"/>
<ellipse cx="48.7054" cy="99.7464" rx="10.5882" ry="10.593" fill="#FF8B66"/>
<ellipse cx="48.7054" cy="129.407" rx="10.5882" ry="10.593" fill="#FF8B66"/>
<ellipse cx="86.8236" cy="10.7649" rx="10.5882" ry="10.593" fill="#FF8B66"/>
<ellipse cx="86.8236" cy="40.4251" rx="10.5882" ry="10.593" fill="#FF8B66"/>
<ellipse cx="86.8236" cy="70.0862" rx="10.5882" ry="10.593" fill="#FF8B66"/>
<ellipse cx="86.8236" cy="99.7464" rx="10.5882" ry="10.593" fill="#FF8B66"/>
<ellipse cx="86.8236" cy="129.407" rx="10.5882" ry="10.593" fill="#FF8B66"/>
<ellipse cx="124.941" cy="10.7649" rx="10.5882" ry="10.593" fill="#FF8B66"/>
<ellipse cx="124.941" cy="40.4251" rx="10.5882" ry="10.593" fill="#FF8B66"/>
<ellipse cx="124.941" cy="70.0862" rx="10.5882" ry="10.593" fill="#FF8B66"/>
<ellipse cx="124.941" cy="99.7464" rx="10.5882" ry="10.593" fill="#FF8B66"/>
<ellipse cx="124.941" cy="129.407" rx="10.5882" ry="10.593" fill="#FF8B66"/>
<ellipse cx="163.059" cy="10.7649" rx="10.5882" ry="10.593" fill="#FF8B66"/>
<ellipse cx="163.059" cy="40.4251" rx="10.5882" ry="10.593" fill="#FF8B66"/>
<ellipse cx="163.059" cy="70.0862" rx="10.5882" ry="10.593" fill="#FF8B66"/>
<ellipse cx="163.059" cy="99.7464" rx="10.5882" ry="10.593" fill="#FF8B66"/>
<ellipse cx="163.059" cy="129.407" rx="10.5882" ry="10.593" fill="#FF8B66"/>
<ellipse cx="201.176" cy="10.7649" rx="10.5882" ry="10.593" fill="#FF8B66"/>
<ellipse cx="201.176" cy="40.4251" rx="10.5882" ry="10.593" fill="#FF8B66"/>
<ellipse cx="201.176" cy="70.0862" rx="10.5882" ry="10.593" fill="#FF8B66"/>
<ellipse cx="201.176" cy="99.7464" rx="10.5882" ry="10.593" fill="#FF8B66"/>
<ellipse cx="201.176" cy="129.407" rx="10.5882" ry="10.593" fill="#FF8B66"/>
<ellipse cx="239.294" cy="10.7649" rx="10.5882" ry="10.593" fill="#FF8B66"/>
<ellipse cx="239.294" cy="40.4251" rx="10.5882" ry="10.593" fill="#FF8B66"/>
<ellipse cx="239.294" cy="70.0862" rx="10.5882" ry="10.593" fill="#FF8B66"/>
<ellipse cx="239.294" cy="99.7464" rx="10.5882" ry="10.593" fill="#FF8B66"/>
<ellipse cx="239.294" cy="129.407" rx="10.5882" ry="10.593" fill="#FF8B66"/>
<ellipse cx="277.411" cy="10.7649" rx="10.5882" ry="10.593" fill="#FF8B66"/>
<ellipse cx="277.411" cy="40.4251" rx="10.5882" ry="10.593" fill="#FF8B66"/>
<ellipse cx="277.411" cy="70.0862" rx="10.5882" ry="10.593" fill="#FF8B66"/>
<ellipse cx="277.411" cy="99.7464" rx="10.5882" ry="10.593" fill="#FF8B66"/>
<ellipse cx="277.411" cy="129.407" rx="10.5882" ry="10.593" fill="#FF8B66"/>
<ellipse cx="10.5882" cy="10.7649" rx="10.5882" ry="10.593" fill="#FF8B66"/>
<ellipse cx="48.7064" cy="10.7649" rx="10.5882" ry="10.593" fill="#FF8B66"/>
<ellipse cx="86.8236" cy="10.7649" rx="10.5882" ry="10.593" fill="#FF8B66"/>
<ellipse cx="124.941" cy="10.7649" rx="10.5882" ry="10.593" fill="#FF8B66"/>
<ellipse cx="163.059" cy="10.7649" rx="10.5882" ry="10.593" fill="#FF8B66"/>
<ellipse cx="201.176" cy="10.7649" rx="10.5882" ry="10.593" fill="#FF8B66"/>
<ellipse cx="239.294" cy="10.7649" rx="10.5882" ry="10.593" fill="#FF8B66"/>
<ellipse cx="277.411" cy="10.7649" rx="10.5882" ry="10.593" fill="#FF8B66"/>
<ellipse cx="10.5882" cy="40.4251" rx="10.5882" ry="10.593" fill="#FF8B66"/>
<ellipse cx="48.7054" cy="40.4251" rx="10.5882" ry="10.593" fill="#FF8B66"/>
<ellipse cx="86.8236" cy="40.4251" rx="10.5882" ry="10.593" fill="#FF8B66"/>
<ellipse cx="124.941" cy="40.4251" rx="10.5882" ry="10.593" fill="#FF8B66"/>
<ellipse cx="163.059" cy="40.4251" rx="10.5882" ry="10.593" fill="#FF8B66"/>
</svg>
