<svg width="246" height="68" viewBox="0 0 246 68" fill="none" xmlns="http://www.w3.org/2000/svg">
<g clip-path="url(#clip0_8_56335)">
<g clip-path="url(#clip1_8_56335)">
<g clip-path="url(#clip2_8_56335)">
<g clip-path="url(#clip3_8_56335)">
<g clip-path="url(#clip4_8_56335)">
<g clip-path="url(#clip5_8_56335)">
<path d="M245.08 14.7526C243.927 7.75544 240.64 5.81002 240.64 5.81002C230.549 -1.39736 217.956 0.156128 206.642 1.19158C186.668 1.23362 166.775 2.77289 146.846 3.59878C105.018 3.72489 62.8322 1.65337 21.2119 6.7614C17.302 8.32911 -3.71036 7.06926 1.04113 15.6484C2.28653 19.2171 6.83086 23.1778 6.69194 26.4523C7.31463 27.026 8.17984 25.7105 8.54887 26.5364C9.84078 28.7613 11.9508 27.7116 13.6812 29.0277C11.2704 32.5402 13.0002 35.4648 14.6493 38.5298C11.7436 39.3278 8.01858 38.9495 6.34647 41.5947C6.17343 43.5123 5.23938 43.1482 4.21292 43.0641C3.46308 43.0085 1.95223 43.2181 2.2059 43.8202C3.0711 45.8769 -0.642765 47.0669 1.68677 49.0821C0.0841304 51.2649 2.79448 53.1547 2.42545 55.5193C2.37894 55.9953 2.63261 56.4014 3.03637 56.5133C4.82384 57.1148 2.21768 58.2906 2.4943 59.564C20.831 68.2686 40.7245 62.2513 59.511 66.2534C64.389 63.4549 60.7216 67.2474 62.671 66.6595C64.193 65.9739 65.3001 68.8145 67.0187 67.2054C67.2841 66.7436 66.8804 65.6519 67.8256 65.8614C68.3218 65.9739 68.7603 65.9455 68.8291 65.302C68.9333 64.3364 68.0222 64.9379 67.7797 64.4341C70.3976 61.8871 69.752 67.9472 72.2081 67.695C72.0927 66.9531 71.3782 65.8899 72.8425 66.0296C74.2957 64.9663 74.3416 64.0842 75.6335 66.4778C75.6794 66.9952 75.9101 67.3593 76.2792 67.6109C80.3156 65.0077 84.329 68.5345 88.5614 67.3593C91.1563 66.0716 93.6471 68.0591 96.2762 67.5689C97.1991 67.1769 98.1332 66.4778 99.0213 67.6529C109.896 67.9051 121.486 66.8555 131.797 67.695C159.347 66.1279 188.79 68.3385 217.84 66.2676C224.691 65.4701 231.806 64.3364 238.484 63.4264C238.484 63.4264 243.892 60.9358 243.892 49.7399C243.892 38.544 245.045 39.9435 245.219 31.0287C245.392 22.1139 246.199 21.7498 245.045 14.7526H245.08Z" fill="white"/>
<g clip-path="url(#clip6_8_56335)">
<path d="M46.2587 21.938C47.4567 21.938 48.4207 22.2738 49.1507 22.9455C49.8807 23.6171 50.2457 24.494 50.2457 25.5761C50.2457 26.4343 50.0174 27.3205 49.5606 28.2347C49.1002 29.1489 48.4955 29.9512 47.7468 30.6415C46.9981 31.3318 46.2119 31.7982 45.3883 32.0408L45.1075 31.537C45.9124 31.1825 46.5638 30.6135 47.0617 29.8299C47.5559 29.0463 47.803 28.2161 47.803 27.3392C47.803 26.2198 47.466 25.3186 46.7922 24.6358C46.1183 23.9567 45.2198 23.6171 44.0967 23.6171C42.9736 23.6171 41.916 24.0182 40.9239 24.8205C39.9318 25.6227 39.1363 26.6899 38.5373 28.022C37.9383 29.3579 37.6388 30.7814 37.6388 32.2926C37.6388 33.9345 37.8915 35.3804 38.3969 36.6304C38.9023 37.8804 39.6192 38.845 40.5477 39.5241C41.4724 40.207 42.5337 40.5484 43.7317 40.5484C44.6302 40.5484 45.5099 40.3562 46.371 39.9719C47.232 39.5913 48.0182 39.0372 48.7295 38.3095L49.3472 38.9252C47.3631 41.4253 45.0139 42.6753 42.2997 42.6753C40.7835 42.6753 39.4732 42.3021 38.3688 41.5559C37.2645 40.8096 36.4184 39.7965 35.8306 38.5166C35.2391 37.2405 34.9434 35.8188 34.9434 34.2516C34.9434 31.9568 35.4544 29.871 36.4764 27.9941C37.4947 26.1209 38.8742 24.6433 40.6151 23.5611C42.3559 22.479 44.2371 21.938 46.2587 21.938ZM59.1464 28.3747C60.0636 28.3747 60.9284 28.5706 61.7408 28.9624C62.5569 29.3542 63.1521 29.9512 63.5265 30.7534L61.5049 31.8449C61.2054 31.4158 60.7936 31.0277 60.2695 30.6807C59.7454 30.3374 59.1838 30.1657 58.5848 30.1657C57.6302 30.1657 56.7972 30.412 56.0859 30.9046C55.3746 31.4008 54.8318 32.0688 54.4574 32.9083C54.083 33.7479 53.8958 34.6807 53.8958 35.7069C53.8958 37.1808 54.1485 38.3786 54.6539 39.3002C55.1593 40.2256 55.9549 40.6883 57.0405 40.6883C58.5755 40.6883 59.633 40.0726 60.2133 38.8413C60.7936 37.6099 61.0837 36.2666 61.0837 34.8113V33.552L63.5546 32.5165V39.8767C63.5546 40.1193 63.6201 40.3525 63.7511 40.5764C63.8821 40.8002 64.0787 40.9122 64.3407 40.9122C64.8836 40.9122 65.3796 40.539 65.8289 39.7928L66.25 40.2405C66.0254 40.8749 65.6323 41.4103 65.0708 41.8469C64.5092 42.2872 63.9477 42.5074 63.3861 42.5074C62.5812 42.5074 61.986 42.2089 61.6004 41.6118C61.2185 41.0148 61.0276 40.2219 61.0276 39.2331H60.9714C60.5035 40.2219 59.8708 41.0465 59.0734 41.707C58.2797 42.3712 57.443 42.7033 56.5632 42.7033C54.9721 42.7033 53.7685 42.1566 52.9524 41.0633C52.14 39.9737 51.7338 38.5148 51.7338 36.6864C51.7338 35.2311 52.0614 33.8636 52.7166 32.5837C53.3717 31.3075 54.2646 30.287 55.3952 29.5221C56.5295 28.7571 57.7799 28.3747 59.1464 28.3747ZM74.2522 31.7889C73.4099 32.6658 72.6836 33.8076 72.0734 35.2143C71.4669 36.6248 71.1636 37.9084 71.1636 39.0651C71.1636 40.0726 71.3826 40.9159 71.8207 41.595C72.2624 42.2779 72.97 42.6193 73.9433 42.6193C74.7295 42.6193 75.482 42.4141 76.2008 42.0036C76.9233 41.5932 77.5373 41.0614 78.0427 40.4084L77.7338 39.9887C77.1536 40.3805 76.5826 40.5764 76.0211 40.5764C75.1413 40.5764 74.4768 40.2685 74.0276 39.6528C73.5783 39.0372 73.3537 38.2909 73.3537 37.414C73.3537 35.9961 73.7187 34.6528 74.4487 33.3841C75.1788 32.1154 76.1053 30.884 77.2284 29.69L76.7792 29.2982C75.4689 30.1191 74.2709 30.5295 73.1852 30.5295C72.5488 30.5295 71.9685 30.2441 71.4444 29.6732C70.9203 29.106 70.5178 28.4773 70.2371 27.787L67.9628 30.3336C68.0938 30.7068 68.4495 31.1359 69.0297 31.621L67.1485 35.539L68.1874 36.0147L70.0125 32.0128C70.3307 32.1434 70.5927 32.2273 70.7986 32.2647C71.0045 32.302 71.2853 32.3206 71.641 32.3206C72.5582 32.3206 73.4005 32.1154 74.168 31.7049L74.2522 31.7889ZM92.2163 16.5088V39.8767C92.2163 40.1379 92.2781 40.3749 92.4016 40.5876C92.5214 40.804 92.7124 40.9122 92.9744 40.9122C93.2365 40.9122 93.4985 40.7946 93.7606 40.5596C94.0227 40.3282 94.2192 40.0726 94.3502 39.7928L94.8837 40.2405C94.5842 40.8749 94.1593 41.4103 93.609 41.8469C93.0549 42.2872 92.5158 42.5074 91.9917 42.5074C91.1307 42.5074 90.5036 42.2648 90.1105 41.7797C89.7174 41.2947 89.5302 40.4551 89.5489 39.261H89.4366C88.2948 41.5559 86.9003 42.7033 85.253 42.7033C83.6245 42.7033 82.376 42.138 81.5075 41.0073C80.6352 39.8805 80.1991 38.4681 80.1991 36.7703C80.1991 35.427 80.4892 34.093 81.0695 32.7684C81.6497 31.4437 82.479 30.3523 83.5572 29.4941C84.6316 28.6359 85.8708 28.2067 87.2746 28.2067C88.1544 28.2067 88.9219 28.4306 89.577 28.8784V17.5722L92.2163 16.5088ZM87.1062 29.8579C86.0579 29.8579 85.1931 30.1844 84.5118 30.8374C83.8267 31.4904 83.325 32.2777 83.0068 33.1994C82.6886 34.1248 82.5295 34.9886 82.5295 35.7908C82.5295 36.4252 82.6418 37.1248 82.8664 37.8897C83.0911 38.6547 83.4561 39.3114 83.9615 39.8599C84.4669 40.4122 85.1127 40.6883 85.8988 40.6883C87.3214 40.6883 88.2911 40.0764 88.8077 38.8524C89.3206 37.6323 89.577 36.2852 89.577 34.8113V30.9773C89.2588 30.6415 88.89 30.371 88.4708 30.1657C88.0477 29.9605 87.5929 29.8579 87.1062 29.8579ZM100.752 27.2273C101.388 27.2273 101.853 27.3392 102.145 27.5631C102.433 27.787 102.577 28.1321 102.577 28.5985C102.577 29.1023 102.48 29.5501 102.285 29.9419C102.087 30.3336 101.875 30.6695 101.65 30.9493C101.426 31.2292 101.276 31.4251 101.201 31.537C101.426 31.9102 101.847 32.3486 102.465 32.8523C102.97 33.2815 103.373 33.6639 103.672 33.9998C103.972 34.3356 104.23 34.7871 104.447 35.3543C104.66 35.9252 104.767 36.6211 104.767 37.442C104.767 38.4121 104.548 39.2984 104.11 40.1006C103.668 40.9029 103.06 41.5372 102.285 42.0036C101.506 42.47 100.63 42.7033 99.6569 42.7033C99.0579 42.7033 98.4028 42.5764 97.6915 42.3227C96.9802 42.0727 96.4561 41.7144 96.1191 41.248L98.0003 38.7573C98.4496 39.3357 98.9232 39.8301 99.4211 40.2405C99.9152 40.651 100.452 40.8562 101.033 40.8562C101.838 40.8562 102.526 40.5894 103.099 40.0558C103.668 39.526 103.953 38.8879 103.953 38.1416C103.953 37.5446 103.706 36.9513 103.212 36.3617C102.714 35.7759 102.015 35.0819 101.117 34.2796C101.005 34.1863 100.789 33.9942 100.471 33.7031C100.153 33.4158 99.919 33.1788 99.7692 32.9923L97.8038 35.8748L96.9053 35.2871L99.1515 32.1807C98.8895 31.4531 98.7584 30.7348 98.7584 30.0258C98.7584 29.2236 98.9363 28.5556 99.2919 28.022C99.6476 27.4922 100.134 27.2273 100.752 27.2273ZM100.752 28.3187C100.509 28.3187 100.355 28.384 100.291 28.5146C100.224 28.6452 100.19 28.8411 100.19 29.1023C100.19 29.4381 100.237 29.7273 100.331 29.9698C100.424 30.2124 100.49 30.3803 100.527 30.4736C100.733 30.343 100.926 30.1042 101.106 29.7571C101.282 29.4139 101.37 29.1209 101.37 28.8784C101.37 28.7105 101.319 28.5743 101.218 28.4698C101.113 28.3691 100.958 28.3187 100.752 28.3187ZM114.061 21.994C115.315 21.994 116.504 22.2775 117.627 22.8447C118.75 23.4156 119.695 24.2235 120.463 25.2683L118.272 27.9549C117.805 26.6489 117.106 25.5668 116.178 24.7086C115.253 23.8503 114.154 23.4212 112.882 23.4212C111.665 23.4212 110.72 23.7664 110.046 24.4567C109.372 25.147 109.035 26.0332 109.035 27.1153C109.035 28.1228 109.278 28.9624 109.765 29.634C110.252 30.3057 110.841 30.8467 111.534 31.2572C112.226 31.6676 113.162 32.1341 114.342 32.6564C115.465 33.1602 116.348 33.5986 116.992 33.9718C117.64 34.3449 118.188 34.83 118.637 35.427C119.087 36.024 119.311 36.761 119.311 37.6379C119.33 39.261 118.806 40.5111 117.739 41.3879C116.672 42.2648 115.287 42.7033 113.583 42.7033C112.329 42.7033 111.135 42.4551 110.001 41.9588C108.87 41.4663 107.968 40.7163 107.294 39.7088L109.484 37.2741C110.121 38.7666 110.897 39.8245 111.815 40.4476C112.732 41.0745 113.621 41.3879 114.482 41.3879C115.287 41.3879 115.974 41.1678 116.543 40.7275C117.116 40.2909 117.402 39.7181 117.402 39.0092C117.402 38.3562 117.2 37.7815 116.796 37.2853C116.395 36.7927 115.895 36.3729 115.296 36.0259C114.697 35.6826 113.883 35.2778 112.853 34.8113C111.543 34.2143 110.495 33.6733 109.709 33.1882C108.923 32.7031 108.249 32.0632 107.687 31.2684C107.126 30.4773 106.845 29.5127 106.845 28.3747C106.845 27.1806 107.157 26.0929 107.783 25.1115C108.412 24.1339 109.278 23.369 110.383 22.8167C111.487 22.2682 112.713 21.994 114.061 21.994ZM125.741 16.5088V36.4065H125.853C126.041 35.3804 126.372 34.2292 126.847 32.9531C127.327 31.6732 127.969 30.5482 128.774 29.578C129.578 28.6079 130.524 28.1228 131.609 28.1228C132.19 28.1228 132.615 28.3317 132.884 28.7497C133.157 29.1713 133.317 29.6433 133.361 30.1657C133.41 30.6881 133.434 31.3784 133.434 32.2367V40.0166C133.434 40.2405 133.504 40.4551 133.642 40.6603C133.784 40.8655 134.005 40.9682 134.305 40.9682C134.792 40.9682 135.288 40.6043 135.793 39.8767L136.13 40.2965C135.868 40.9122 135.45 41.4346 134.878 41.8637C134.309 42.2928 133.734 42.5074 133.154 42.5074C131.694 42.5074 130.964 41.5652 130.964 39.6808V32.2647C130.964 32.0221 130.911 31.7982 130.806 31.593C130.705 31.3878 130.533 31.2852 130.29 31.2852C129.335 31.2852 128.511 32.0258 127.819 33.5072C127.126 34.9923 126.593 36.6248 126.218 38.4047C125.844 40.1883 125.657 41.3973 125.657 42.0316L123.158 42.7592V17.5722L125.741 16.5088ZM144.435 28.1228L144.941 28.7105C143.537 29.606 142.432 30.6042 141.628 31.7049C140.823 32.8057 140.42 34.1024 140.42 35.5949C140.42 36.4345 140.598 37.2778 140.954 38.1248C141.309 38.9756 141.843 39.6808 142.554 40.2405C143.265 40.8002 144.117 41.0801 145.109 41.0801C145.914 41.0801 146.631 40.8935 147.26 40.5204C147.885 40.1472 148.372 39.6435 148.72 39.0092C149.064 38.3748 149.237 37.6752 149.237 36.9103C149.237 36.0334 148.971 35.1378 148.439 34.2236C147.904 33.3094 147.206 32.5352 146.345 31.9008C145.484 31.2665 144.604 30.912 143.705 30.8374C144.08 30.4642 144.529 30.0725 145.053 29.662C145.577 29.2515 146.111 28.8504 146.653 28.4586C147.945 28.8877 148.965 29.703 149.714 30.9046C150.463 32.1098 150.837 33.4494 150.837 34.9233C150.837 36.2293 150.571 37.483 150.04 38.6845C149.504 39.8898 148.722 40.8693 147.692 41.623C146.663 42.3805 145.446 42.7592 144.042 42.7592C142.919 42.7592 141.886 42.4831 140.942 41.9309C139.995 41.3823 139.25 40.6323 138.707 39.6808C138.165 38.7293 137.893 37.6752 137.893 36.5185C137.893 34.4848 138.498 32.7218 139.707 31.2292C140.912 29.7366 142.489 28.7012 144.435 28.1228ZM161.675 28.2347C162.667 28.2347 163.584 28.5183 164.427 29.0855C165.269 29.6564 165.933 30.4307 166.42 31.4083C166.907 32.3897 167.15 33.4587 167.15 34.6154C167.15 36.2573 166.922 37.6789 166.465 38.8804C166.005 40.0857 165.344 41.0148 164.483 41.6678C163.622 42.3208 162.611 42.6473 161.45 42.6473C161.17 42.6473 160.894 42.6062 160.625 42.5242C160.352 42.4383 160.009 42.2928 159.597 42.0876L160.327 40.4924C160.795 40.7909 161.469 40.9402 162.349 40.9402C163.135 40.9402 163.777 40.4215 164.275 39.3842C164.769 38.3506 165.016 37.0222 165.016 35.399C165.016 34.4662 164.829 33.6117 164.455 32.8356C164.08 32.0632 163.566 31.4568 162.91 31.0165C162.255 30.5799 161.525 30.3616 160.72 30.3616C159.747 30.3616 158.998 30.884 158.474 31.9288C157.95 32.9736 157.688 34.4569 157.688 36.3785V50.4553L155.245 51.4907V30.8654C155.245 30.5295 155.17 30.259 155.021 30.0538C154.871 29.8486 154.674 29.746 154.431 29.746C154.244 29.746 154.038 29.8392 153.813 30.0258C153.589 30.2124 153.308 30.5109 152.971 30.9213L152.55 30.5016C152.774 29.8672 153.167 29.3299 153.729 28.8896C154.291 28.453 154.852 28.2347 155.414 28.2347C156.256 28.2347 156.864 28.481 157.239 28.9736C157.613 29.4698 157.8 30.2683 157.8 31.3691H157.913C158.343 30.4363 158.901 29.6807 159.586 29.1023C160.267 28.5239 160.964 28.2347 161.675 28.2347ZM178.072 28.2347C179.065 28.2347 179.982 28.5183 180.824 29.0855C181.666 29.6564 182.331 30.4307 182.818 31.4083C183.304 32.3897 183.548 33.4587 183.548 34.6154C183.548 36.2573 183.317 37.6789 182.857 38.8804C182.4 40.0857 181.741 41.0148 180.88 41.6678C180.019 42.3208 179.008 42.6473 177.848 42.6473C177.567 42.6473 177.29 42.6062 177.017 42.5242C176.747 42.4383 176.406 42.2928 175.995 42.0876L176.725 40.4924C177.193 40.7909 177.867 40.9402 178.746 40.9402C179.532 40.9402 180.173 40.4215 180.667 39.3842C181.165 38.3506 181.414 37.0222 181.414 35.399C181.414 34.4662 181.226 33.6117 180.852 32.8356C180.478 32.0632 179.963 31.4568 179.308 31.0165C178.653 30.5799 177.923 30.3616 177.118 30.3616C176.144 30.3616 175.396 30.884 174.872 31.9288C174.347 32.9736 174.085 34.4569 174.085 36.3785V50.4553L171.643 51.4907V30.8654C171.643 30.5295 171.568 30.259 171.418 30.0538C171.268 29.8486 171.072 29.746 170.828 29.746C170.641 29.746 170.435 29.8392 170.211 30.0258C169.986 30.2124 169.705 30.5109 169.368 30.9213L168.947 30.5016C169.172 29.8672 169.565 29.3299 170.126 28.8896C170.688 28.453 171.25 28.2347 171.811 28.2347C172.653 28.2347 173.262 28.481 173.636 28.9736C174.011 29.4698 174.198 30.2683 174.198 31.3691H174.31C174.741 30.4363 175.296 29.6807 175.978 29.1023C176.663 28.5239 177.361 28.2347 178.072 28.2347ZM194.133 28.1228C195.144 28.1228 195.986 28.3933 196.66 28.9344C197.334 29.4754 197.671 30.2777 197.671 31.3411C197.671 32.1994 197.206 33.1546 196.278 34.2068C195.353 35.2628 194.268 36.2293 193.021 37.1062C191.778 37.983 190.717 38.5987 189.837 38.9532C190.305 39.6995 190.838 40.2163 191.437 40.5036C192.036 40.7946 192.738 40.9402 193.543 40.9402C194.442 40.9402 195.335 40.7107 196.222 40.2517C197.113 39.7965 197.849 39.2051 198.429 38.4774L198.766 39.0651C197.849 40.2405 196.875 41.1417 195.846 41.7685C194.816 42.3917 193.553 42.7033 192.055 42.7033C190.913 42.7033 189.893 42.4234 188.995 41.8637C188.096 41.304 187.394 40.5521 186.889 39.6081C186.383 38.6677 186.131 37.6472 186.131 36.5464C186.131 35.1658 186.505 33.8225 187.254 32.5165C188.003 31.2105 188.995 30.1508 190.23 29.3374C191.466 28.5276 192.766 28.1228 194.133 28.1228ZM192.673 29.8859C191.849 29.8859 191.114 30.1471 190.466 30.6695C189.822 31.1919 189.317 31.8635 188.95 32.6844C188.587 33.5053 188.405 34.3542 188.405 35.2311C188.405 36.3879 188.676 37.3767 189.219 38.1976C190.005 37.8431 190.857 37.3058 191.774 36.5856C192.692 35.8692 193.468 35.0912 194.105 34.2516C194.741 33.4121 195.059 32.6471 195.059 31.9568C195.059 30.5762 194.264 29.8859 192.673 29.8859ZM207.268 31.7889C206.425 32.6658 205.701 33.8076 205.094 35.2143C204.484 36.6248 204.179 37.9084 204.179 39.0651C204.179 40.0726 204.4 40.9159 204.842 41.595C205.28 42.2779 205.985 42.6193 206.959 42.6193C207.745 42.6193 208.499 42.4141 209.222 42.0036C209.941 41.5932 210.553 41.0614 211.058 40.4084L210.749 39.9887C210.169 40.3805 209.598 40.5764 209.037 40.5764C208.157 40.5764 207.492 40.2685 207.043 39.6528C206.594 39.0372 206.369 38.2909 206.369 37.414C206.369 35.9961 206.734 34.6528 207.464 33.3841C208.194 32.1154 209.121 30.884 210.244 29.69L209.795 29.2982C208.484 30.1191 207.286 30.5295 206.201 30.5295C205.564 30.5295 204.984 30.2441 204.46 29.6732C203.936 29.106 203.533 28.4773 203.253 27.787L200.978 30.3336C201.109 30.7068 201.465 31.1359 202.045 31.621L200.164 35.539L201.203 36.0147L203.028 32.0128C203.346 32.1434 203.608 32.2273 203.814 32.2647C204.02 32.302 204.301 32.3206 204.656 32.3206C205.574 32.3206 206.416 32.1154 207.183 31.7049L207.268 31.7889Z" fill="black"/>
</g>
</g>
</g>
</g>
</g>
</g>
</g>
<defs>
<clipPath id="clip0_8_56335">
<rect width="246" height="68" fill="white"/>
</clipPath>
<clipPath id="clip1_8_56335">
<rect width="245.309" height="67.4126" fill="white" transform="translate(0.345703 0.293945)"/>
</clipPath>
<clipPath id="clip2_8_56335">
<rect width="245.309" height="67.4126" fill="white" transform="translate(0.345703 0.293945)"/>
</clipPath>
<clipPath id="clip3_8_56335">
<rect width="245.309" height="67.4126" fill="white" transform="translate(0.345703 0.293945)"/>
</clipPath>
<clipPath id="clip4_8_56335">
<rect width="245.309" height="67.4126" fill="white" transform="translate(0.345703 0.293945)"/>
</clipPath>
<clipPath id="clip5_8_56335">
<rect width="245.309" height="67.4126" fill="white" transform="translate(0.345703 0.293945)"/>
</clipPath>
<clipPath id="clip6_8_56335">
<rect width="176.132" height="34.9819" fill="white" transform="translate(34.9346 16.5088)"/>
</clipPath>
</defs>
</svg>
