<svg width="242" height="118" viewBox="0 0 242 118" fill="none" xmlns="http://www.w3.org/2000/svg">
<ellipse cx="40.7728" cy="8.86766" rx="8.86364" ry="8.86766" fill="#FF8B66"/>
<ellipse cx="40.7728" cy="33.6968" rx="8.86364" ry="8.86766" fill="#FF8B66"/>
<ellipse cx="40.7728" cy="58.5268" rx="8.86364" ry="8.86766" fill="#FF8B66"/>
<ellipse cx="8.86364" cy="58.5268" rx="8.86364" ry="8.86766" fill="#FF8B66"/>
<ellipse cx="8.86364" cy="83.3559" rx="8.86364" ry="8.86766" fill="#FF8B66"/>
<ellipse cx="8.86364" cy="108.185" rx="8.86364" ry="8.86766" fill="#FF8B66"/>
<ellipse cx="40.7728" cy="83.3559" rx="8.86364" ry="8.86766" fill="#FF8B66"/>
<ellipse cx="40.7728" cy="108.185" rx="8.86364" ry="8.86766" fill="#FF8B66"/>
<ellipse cx="72.682" cy="8.86766" rx="8.86364" ry="8.86766" fill="#FF8B66"/>
<ellipse cx="72.682" cy="33.6968" rx="8.86364" ry="8.86766" fill="#FF8B66"/>
<ellipse cx="72.682" cy="58.5268" rx="8.86364" ry="8.86766" fill="#FF8B66"/>
<ellipse cx="72.682" cy="83.3559" rx="8.86364" ry="8.86766" fill="#FF8B66"/>
<ellipse cx="72.682" cy="108.185" rx="8.86364" ry="8.86766" fill="#FF8B66"/>
<ellipse cx="104.591" cy="8.86766" rx="8.86364" ry="8.86766" fill="#FF8B66"/>
<ellipse cx="104.591" cy="33.6968" rx="8.86364" ry="8.86766" fill="#FF8B66"/>
<ellipse cx="104.591" cy="58.5268" rx="8.86364" ry="8.86766" fill="#FF8B66"/>
<ellipse cx="104.591" cy="83.3559" rx="8.86364" ry="8.86766" fill="#FF8B66"/>
<ellipse cx="104.591" cy="108.185" rx="8.86364" ry="8.86766" fill="#FF8B66"/>
<ellipse cx="136.5" cy="8.86766" rx="8.86364" ry="8.86766" fill="#FF8B66"/>
<ellipse cx="136.5" cy="33.6968" rx="8.86364" ry="8.86766" fill="#FF8B66"/>
<ellipse cx="136.5" cy="58.5268" rx="8.86364" ry="8.86766" fill="#FF8B66"/>
<ellipse cx="136.5" cy="83.3559" rx="8.86364" ry="8.86766" fill="#FF8B66"/>
<ellipse cx="136.5" cy="108.185" rx="8.86364" ry="8.86766" fill="#FF8B66"/>
<ellipse cx="168.41" cy="8.86766" rx="8.86364" ry="8.86766" fill="#FF8B66"/>
<ellipse cx="168.41" cy="33.6968" rx="8.86364" ry="8.86766" fill="#FF8B66"/>
<ellipse cx="168.41" cy="58.5268" rx="8.86364" ry="8.86766" fill="#FF8B66"/>
<ellipse cx="168.41" cy="83.3559" rx="8.86364" ry="8.86766" fill="#FF8B66"/>
<ellipse cx="168.41" cy="108.185" rx="8.86364" ry="8.86766" fill="#FF8B66"/>
<ellipse cx="200.318" cy="8.86766" rx="8.86364" ry="8.86766" fill="#FF8B66"/>
<ellipse cx="200.318" cy="33.6968" rx="8.86364" ry="8.86766" fill="#FF8B66"/>
<ellipse cx="200.318" cy="58.5268" rx="8.86364" ry="8.86766" fill="#FF8B66"/>
<ellipse cx="200.318" cy="83.3559" rx="8.86364" ry="8.86766" fill="#FF8B66"/>
<ellipse cx="200.318" cy="108.185" rx="8.86364" ry="8.86766" fill="#FF8B66"/>
<ellipse cx="232.227" cy="8.86766" rx="8.86364" ry="8.86766" fill="#FF8B66"/>
<ellipse cx="232.227" cy="33.6968" rx="8.86364" ry="8.86766" fill="#FF8B66"/>
<ellipse cx="232.227" cy="58.5268" rx="8.86364" ry="8.86766" fill="#FF8B66"/>
<ellipse cx="232.227" cy="83.3559" rx="8.86364" ry="8.86766" fill="#FF8B66"/>
<ellipse cx="232.227" cy="108.185" rx="8.86364" ry="8.86766" fill="#FF8B66"/>
<ellipse cx="8.86364" cy="8.86766" rx="8.86364" ry="8.86766" fill="#FF8B66"/>
<ellipse cx="40.7728" cy="8.86766" rx="8.86364" ry="8.86766" fill="#FF8B66"/>
<ellipse cx="72.682" cy="8.86766" rx="8.86364" ry="8.86766" fill="#FF8B66"/>
<ellipse cx="104.591" cy="8.86766" rx="8.86364" ry="8.86766" fill="#FF8B66"/>
<ellipse cx="136.5" cy="8.86766" rx="8.86364" ry="8.86766" fill="#FF8B66"/>
<ellipse cx="168.41" cy="8.86766" rx="8.86364" ry="8.86766" fill="#FF8B66"/>
<ellipse cx="200.318" cy="8.86766" rx="8.86364" ry="8.86766" fill="#FF8B66"/>
<ellipse cx="232.227" cy="8.86766" rx="8.86364" ry="8.86766" fill="#FF8B66"/>
<ellipse cx="8.86364" cy="33.6968" rx="8.86364" ry="8.86766" fill="#FF8B66"/>
<ellipse cx="40.7728" cy="33.6968" rx="8.86364" ry="8.86766" fill="#FF8B66"/>
<ellipse cx="72.682" cy="33.6968" rx="8.86364" ry="8.86766" fill="#FF8B66"/>
<ellipse cx="104.591" cy="33.6968" rx="8.86364" ry="8.86766" fill="#FF8B66"/>
<ellipse cx="136.5" cy="33.6968" rx="8.86364" ry="8.86766" fill="#FF8B66"/>
</svg>
