<svg width="52" height="51" viewBox="0 0 52 51" fill="none" xmlns="http://www.w3.org/2000/svg">
<rect x="0.145508" width="51" height="51" rx="25.5" fill="#F3F3F3"/>
<g clip-path="url(#clip0_8_56623)">
<path d="M34.7619 21.0611C34.7764 21.258 34.7764 21.4549 34.7764 21.6518C34.7764 27.6564 30.0437 34.5752 21.3938 34.5752C18.7289 34.5752 16.2533 33.8298 14.1709 32.5361C14.5495 32.5783 14.9135 32.5924 15.3067 32.5924C17.5056 32.5924 19.5298 31.8752 21.1462 30.6518C19.0784 30.6096 17.3454 29.3018 16.7484 27.5017C17.0397 27.5439 17.3309 27.572 17.6367 27.572C18.059 27.572 18.4813 27.5158 18.8745 27.4174C16.7193 26.9955 15.1028 25.1674 15.1028 22.9596V22.9033C15.729 23.2408 16.4572 23.4518 17.2289 23.4799C15.962 22.6642 15.132 21.272 15.132 19.697C15.132 18.8533 15.3649 18.0799 15.7727 17.4049C18.0881 20.1611 21.5685 21.9611 25.4711 22.158C25.3983 21.8205 25.3546 21.469 25.3546 21.1174C25.3546 18.6142 27.4516 16.5752 30.0582 16.5752C31.4125 16.5752 32.6357 17.1236 33.4949 18.0096C34.5579 17.8127 35.5773 17.433 36.4802 16.9127C36.1306 17.9674 35.388 18.8533 34.4123 19.4158C35.3589 19.3174 36.2763 19.0642 37.1209 18.7127C36.4803 19.6127 35.6793 20.4142 34.7619 21.0611Z" fill="black"/>
</g>
<defs>
<clipPath id="clip0_8_56623">
<rect width="22.95" height="19.125" fill="white" transform="translate(14.1709 16.5752)"/>
</clipPath>
</defs>
</svg>
