<svg width="52" height="51" viewBox="0 0 52 51" fill="none" xmlns="http://www.w3.org/2000/svg">
<rect x="0.5" width="51" height="51" rx="25.5" fill="#F3F3F3"/>
<g clip-path="url(#clip0_8_56620)">
<path d="M26.0039 20.3449C23.1078 20.3449 20.7718 22.6443 20.7718 25.4952C20.7718 28.346 23.1078 30.6454 26.0039 30.6454C28.8999 30.6454 31.2359 28.346 31.2359 25.4952C31.2359 22.6443 28.8999 20.3449 26.0039 20.3449ZM26.0039 28.8435C24.1323 28.8435 22.6023 27.3419 22.6023 25.4952C22.6023 23.6484 24.1278 22.1468 26.0039 22.1468C27.8799 22.1468 29.4054 23.6484 29.4054 25.4952C29.4054 27.3419 27.8754 28.8435 26.0039 28.8435ZM32.6703 20.1342C32.6703 20.8021 32.1239 21.3355 31.4499 21.3355C30.7714 21.3355 30.2296 20.7976 30.2296 20.1342C30.2296 19.4708 30.776 18.9329 31.4499 18.9329C32.1239 18.9329 32.6703 19.4708 32.6703 20.1342ZM36.1355 21.3534C36.0581 19.7442 35.6847 18.3188 34.4872 17.1444C33.2941 15.97 31.8461 15.6025 30.2114 15.5218C28.5265 15.4276 23.4766 15.4276 21.7918 15.5218C20.1616 15.598 18.7136 15.9655 17.516 17.1399C16.3184 18.3143 15.9496 19.7397 15.8676 21.3489C15.772 23.0074 15.772 27.9784 15.8676 29.6369C15.945 31.2461 16.3184 32.6715 17.516 33.8459C18.7136 35.0203 20.1571 35.3878 21.7918 35.4685C23.4766 35.5627 28.5265 35.5627 30.2114 35.4685C31.8461 35.3923 33.2941 35.0248 34.4872 33.8459C35.6802 32.6715 36.0536 31.2461 36.1355 29.6369C36.2312 27.9784 36.2312 23.0119 36.1355 21.3534ZM33.9589 31.4164C33.6038 32.295 32.9162 32.9718 32.0191 33.3259C30.6758 33.8504 27.4883 33.7294 26.0039 33.7294C24.5194 33.7294 21.3273 33.8459 19.9886 33.3259C19.0961 32.9763 18.4085 32.2995 18.0488 31.4164C17.516 30.0941 17.639 26.9564 17.639 25.4952C17.639 24.0339 17.5206 20.8917 18.0488 19.5739C18.404 18.6953 19.0915 18.0185 19.9886 17.6644C21.3319 17.1399 24.5194 17.2609 26.0039 17.2609C27.4883 17.2609 30.6804 17.1444 32.0191 17.6644C32.9116 18.014 33.5992 18.6908 33.9589 19.5739C34.4917 20.8962 34.3688 24.0339 34.3688 25.4952C34.3688 26.9564 34.4917 30.0986 33.9589 31.4164Z" fill="black"/>
</g>
<defs>
<clipPath id="clip0_8_56620">
<rect width="20.4" height="22.95" fill="white" transform="translate(15.7998 14.0249)"/>
</clipPath>
</defs>
</svg>
