<svg width="25" height="25" viewBox="0 0 25 25" fill="none" xmlns="http://www.w3.org/2000/svg">
<g clip-path="url(#clip0_2002_3211)">
<path d="M23.3044 15.043L12.6544 22.783L2.00444 15.043C1.86167 14.938 1.75576 14.7906 1.70188 14.6217C1.64799 14.4529 1.64889 14.2713 1.70444 14.103L2.92444 10.323L5.36444 2.81304C5.38811 2.75184 5.42578 2.69705 5.47444 2.65304C5.55368 2.58066 5.65712 2.54053 5.76444 2.54053C5.87176 2.54053 5.9752 2.58066 6.05444 2.65304C6.10582 2.7027 6.14369 2.76466 6.16444 2.83304L8.60444 10.323H16.7044L19.1444 2.81304C19.1681 2.75184 19.2058 2.69705 19.2544 2.65304C19.3337 2.58066 19.4371 2.54053 19.5444 2.54053C19.6518 2.54053 19.7552 2.58066 19.8344 2.65304C19.8858 2.7027 19.9237 2.76466 19.9444 2.83304L22.3844 10.343L23.6544 14.103C23.705 14.2765 23.6982 14.4617 23.6351 14.631C23.5721 14.8003 23.4561 14.9448 23.3044 15.043V15.043Z" stroke="white" stroke-linecap="round" stroke-linejoin="round"/>
</g>
<defs>
<clipPath id="clip0_2002_3211">
<rect width="24" height="24" fill="white" transform="translate(0.654297 0.652832)"/>
</clipPath>
</defs>
</svg>
