<svg width="25" height="25" viewBox="0 0 25 25" fill="none" xmlns="http://www.w3.org/2000/svg">
<g clip-path="url(#clip0_2002_3213)">
<path d="M23.6543 3.65263C22.6967 4.32811 21.6364 4.84474 20.5143 5.18263C19.912 4.49014 19.1116 3.99933 18.2213 3.77656C17.331 3.55379 16.3938 3.60983 15.5364 3.93709C14.679 4.26434 13.9427 4.84704 13.4273 5.60635C12.9118 6.36567 12.642 7.26497 12.6543 8.18263V9.18263C10.8969 9.2282 9.15557 8.83845 7.58531 8.04808C6.01504 7.25771 4.66461 6.09127 3.6543 4.65263C3.6543 4.65263 -0.345703 13.6526 8.6543 17.6526C6.59482 19.0506 4.14145 19.7516 1.6543 19.6526C10.6543 24.6526 21.6543 19.6526 21.6543 8.15263C21.6534 7.87409 21.6266 7.59623 21.5743 7.32263C22.5949 6.31613 23.3151 5.04535 23.6543 3.65263V3.65263Z" stroke="white" stroke-linecap="round" stroke-linejoin="round"/>
</g>
<defs>
<clipPath id="clip0_2002_3213">
<rect width="24" height="24" fill="white" transform="translate(0.654297 0.652832)"/>
</clipPath>
</defs>
</svg>
